<?xml version="1.0" encoding="UTF-8"?><svg id="_レイヤー_1" xmlns="http://www.w3.org/2000/svg" viewBox="0 0 248 31"><defs><style>.cls-1{fill:#0068b7;}.cls-2{fill:none;}</style></defs><g><g><g><polygon points="49.84 7.23 49.84 10.28 51.55 10.28 51.55 15.9 46.97 7.23 41.68 7.23 41.68 10.28 43.38 10.28 43.38 19.63 41.68 19.63 41.68 22.69 48.67 22.69 48.67 19.63 46.97 19.63 46.97 14.01 51.55 22.69 55.13 22.69 55.13 10.28 56.84 10.28 56.84 7.23 49.84 7.23"/><polygon points="71.38 13.16 71.38 7.23 57.92 7.23 57.92 13.16 60.98 13.16 60.98 10.28 62.62 10.28 62.62 19.63 60.39 19.63 60.39 22.69 68.91 22.69 68.91 19.63 66.68 19.63 66.68 10.28 68.32 10.28 68.32 13.16 71.38 13.16"/><polygon points="85.87 13.16 85.87 7.23 72.42 7.23 72.42 13.16 75.48 13.16 75.48 10.28 77.12 10.28 77.12 19.63 74.89 19.63 74.89 22.69 83.41 22.69 83.41 19.63 81.18 19.63 81.18 10.28 82.82 10.28 82.82 13.16 85.87 13.16"/></g><g><path d="m199.62,7.4l-.68,2.71h-5.64v-2.71h6.31Zm-6.31,5.09v2.71h5.96v-2.71h-5.96Zm9.23-1.33c-.51,6.13-1.57,8.53-7.77,8.53h-1.47v3.01h1.76c8.48,0,10-4.51,10.37-11.54h-2.9Z"/><path d="m224.36,7.4l-.72,2.93h-5.8v-2.93h6.51Zm2.66,3.76c-.54,6.44-1.84,8.53-7.7,8.53h-1.47v3.01h1.76c8.53,0,10-4.46,10.37-11.54h-2.96Z"/><path d="m140.64,22.39c-.6-1.2-1.41-2.63-2.35-4.12-1.96,2.14-4.64,3.62-7.53,4.43v-2.85c3.86-1.57,7.29-4.63,7.43-9.83h-6.83v-2.78h10.11v2.78c0,2.14-.49,4.03-1.35,5.67,1.56,2.2,3.14,4.75,4.19,6.7h-3.66Z"/><path d="m129.91,19.99c-1.36-.32-3.22-.85-5.02-1.59v4.31h-3.27v-4.3c-1.8.75-3.61,1.26-5.01,1.59v-2.72c2.61-.83,7.84-2.5,8.61-5.59h-7.79v-2.78h4.19v-1.97h3.27v1.97h3.91v1.61c0,2.21-1.14,3.97-2.78,5.34,1.39.63,2.76,1.07,3.89,1.41v2.72Z"/><path d="m169.4,7.09v7.11c0,5.87-3.08,8.17-9.26,8.5v-2.76c4.44-.31,5.95-2.11,5.95-6.23v-6.63h3.31Zm-11.27,0v9.4h3.26V7.09h-3.26Z"/><polygon points="206.48 10.56 206.48 13 213.42 13 213.42 15.38 207.05 15.38 207.05 17.83 213.42 17.83 213.42 20.26 206.48 20.26 206.48 22.71 216.26 22.71 216.26 10.56 206.48 10.56"/><polygon points="178.88 11.15 170.8 11.15 170.8 13.59 175.85 13.59 175.37 20.26 169.88 20.26 169.88 22.71 180.71 22.71 180.71 20.26 178.22 20.26 178.88 11.15"/><path d="m95.76,19.93h5.84v2.78h-7.15c-3.09,0-4.97-1.9-4.97-4.79V7.25h3.27v2.97h8.76l-.69,2.78h-8.07v3.8c0,2.02.88,3.13,3.01,3.13Zm2.7-13.46v2.98h1.48v-2.98h-1.48Zm2.51,0v2.98h1.48v-2.98h-1.48Z"/><path d="m109.8,7.4l-.67,2.71h-5.64v-2.71h6.31Zm-6.31,5.09v2.71h5.96v-2.71h-5.96Zm9.23-1.33c-.51,6.13-1.57,8.53-7.77,8.53h-1.47v3.01h1.76c8.48,0,10-4.51,10.37-11.54h-2.9Zm-.4-4.69v2.98h1.48v-2.98h-1.48Zm2.5,0v2.98h1.48v-2.98h-1.48Z"/><path d="m243.27,22.39h-3.66c-.59-1.19-1.41-2.62-2.34-4.09-1.96,2.16-4.65,3.66-7.55,4.41v-2.85c3.87-1.57,7.29-4.63,7.43-9.83h-6.83v-2.78h8.52v2.56h1.59v.21c0,2.13-.49,4.03-1.34,5.68,1.56,2.2,3.13,4.75,4.19,6.69Zm-3.71-16.08v2.98h1.48v-2.98h-1.48Zm2.51,0v2.98h1.48v-2.98h-1.48Z"/><polygon points="180.64 13.37 180.64 16.35 190.8 16.35 191.54 13.37 180.64 13.37"/><path d="m146.99,7.25l1.84,8.36h-3.42l-1.73-8.36h3.31Zm6.42,0l-.6,4.88c-.71,5.12-2.37,6.9-7.22,7.78v2.8c6.56-1.06,9.58-3.01,10.5-10.36l.64-5.09h-3.33Z"/></g><path class="cls-1" d="m23.66.88c-1.4,0-2.77.3-3.74.7-.97-.4-2.35-.7-3.74-.7C10.02.88,4.46,6.7,4.46,14.69c0,8.71,7.12,15.44,15.46,15.44s15.46-6.73,15.46-15.44c0-7.99-5.56-13.81-11.71-13.81Zm-3.74,4.74c1.19.71,2.75,2.75,2.75,5.06,0,1.69-1.12,3.02-2.75,3.02s-2.75-1.33-2.75-3.02c0-2.31,1.57-4.35,2.75-5.06Zm0,20.7c-6.38,0-11.66-5.13-11.66-11.71,0-6.01,4.34-10.11,7.74-9.96-1.61,1.61-2.59,3.95-2.59,6.22,0,3.9,3.1,6.64,6.51,6.64s6.51-2.74,6.51-6.64c0-2.27-.98-4.61-2.59-6.22,3.41-.15,7.74,3.95,7.74,9.96,0,6.58-5.28,11.71-11.66,11.71Z"/></g><rect class="cls-2" x="-11" y="-9.43" width="270" height="49.86"/><rect class="cls-2" x="4.46" y=".88" width="239.08" height="29.24"/></g><rect class="cls-2" x="4.46" y=".88" width="239.08" height="29.24"/></svg>